Coordinates
version=1
nRows=12
nColumns=24
inDegrees=yes

Units are S.I. units (second, meters, Newtons, ...)
Angles are in degrees.

endheader
time	pelvis_tilt	pelvis_list	pelvis_rotation	pelvis_tx	pelvis_ty	pelvis_tz	hip_flexion_r	hip_adduction_r	hip_rotation_r	knee_angle_r	ankle_angle_r	subtalar_angle_r	mtp_angle_r	hip_flexion_l	hip_adduction_l	hip_rotation_l	knee_angle_l	ankle_angle_l	subtalar_angle_l	mtp_angle_l	lumbar_extension	lumbar_bending	lumbar_rotation
      1.13300000	     -2.82046881	     -8.09306050	     -6.87890097	     -0.04927240	      0.99288791	      0.29958294	    -13.13425470	      8.21538481	     -1.53329886	     -6.06095674	      4.92351772	     -4.98572405	      1.59601692	     25.37735135	    -11.57568091	    -11.82032438	      2.25056180	      4.32853763	     -6.25608089	    -18.37752200	     -9.04299260	      9.03111260	      8.72202084
      1.13716667	     -2.74702519	     -8.01965147	     -7.17882963	     -0.04380455	      0.99248129	      0.30008970	    -13.45399354	      8.01466166	     -1.18711935	     -6.25301581	      4.96625236	     -4.98262121	      1.82270436	     25.34444124	    -11.66204727	    -11.79005850	      1.68854638	      4.29703632	     -6.58483007	    -18.29587952	     -9.14699369	      8.79370358	      8.98560214
      1.14133333	     -2.67246042	     -7.91139158	     -7.49404997	     -0.03827742	      0.99213900	      0.30062939	    -13.75828429	      7.77047963	     -0.84302130	     -6.46267341	      4.94125734	     -5.00854212	      2.04720140	     25.29792257	    -11.71846208	    -11.78410837	      1.07822676	      4.24090541	     -6.96942720	    -18.21296652	     -9.24629858	      8.50125208	      9.32031111
      1.14550000	     -2.56085473	     -7.79319008	     -7.81745743	     -0.03273609	      0.99190751	      0.30117608	    -14.08240526	      7.50405292	     -0.50255760	     -6.69928095	      4.88251002	     -5.04860214	      2.30595816	     25.20476337	    -11.76440779	    -11.82331773	      0.42597605	      4.13267967	     -7.36183985	    -18.11595226	     -9.39141563	      8.18583979	      9.68156418
      1.14966667	     -2.42249779	     -7.65958794	     -8.14844919	     -0.02717512	      0.99177102	      0.30172742	    -14.41221857	      7.21079198	     -0.17366472	     -6.96757695	      4.77855596	     -5.09866831	      2.63514118	     25.07032636	    -11.79259757	    -11.90092016	     -0.24673658	      3.98280690	     -7.74756124	    -17.98938244	     -9.57152374	      7.83451446	     10.06749712
      1.15383333	     -2.31904150	     -7.53317900	     -8.47034028	     -0.02157091	      0.99161790	      0.30224600	    -14.69644851	      6.92970282	      0.15499481	     -7.24931195	      4.67730802	     -5.14654879	      2.95232327	     24.97771908	    -11.82324559	    -11.98223370	     -0.95649133	      3.79081820	     -8.16935365	    -17.86652503	     -9.68628158	      7.50671317	     10.39750955
      1.15800000	     -2.25361346	     -7.40454833	     -8.77616890	     -0.01589000	      0.99144345	      0.30272258	    -14.93804554	      6.65278294	      0.47995832	     -7.53206933	      4.57187647	     -5.16867744	      3.18128488	     24.92450334	    -11.84371337	    -12.06492647	     -1.68536243	      3.56774265	     -8.62199100	    -17.77951145	     -9.74393418	      7.19797185	     10.66359038
      1.16216667	     -2.13132751	     -7.26492537	     -9.09243598	     -0.01022892	      0.99142535	      0.30319126	    -15.20023256	      6.34755801	      0.76524245	     -7.87292370	      4.39921140	     -5.24247349	      3.49715826	     24.77899028	    -11.84442729	    -12.18807061	     -2.37011865	      3.23898968	     -9.09123801	    -17.65907523	     -9.86348105	      6.83217136	     11.06344321
      1.16633333	     -2.01767603	     -7.11762537	     -9.38555531	     -0.00450498	      0.99143257	      0.30359088	    -15.44662053	      6.03736097	      1.03645414	     -8.21913692	      4.21307527	     -5.30202081	      3.83696756	     24.64081326	    -11.82303865	    -12.33807430	     -3.05480142	      2.87885575	     -9.53586314	    -17.52975088	     -9.96996580	      6.48311245	     11.38541978
      1.17050000	     -1.87023037	     -7.01089200	     -9.73189184	      0.00116666	      0.99158724	      0.30413719	    -15.71994977	      5.76021081	      1.42287195	     -8.56129533	      3.83986230	     -5.59135195	     10.02907070	     24.45178296	    -11.87656244	    -12.64174550	     -3.75954896	      2.54454546	     -9.79959717	    -14.98504143	    -10.15006099	      6.16048336	     11.72241284
      1.17466667	     -1.86415302	     -6.81175148	     -9.93624654	      0.00707350	      0.99147978	      0.30423483	    -15.79927800	      5.41600998	      1.48371787	     -8.98777877	      3.65412624	     -5.46890608	     10.07220547	     24.42265137	    -11.75069366	    -12.71697646	     -4.38664785	      2.05301628	    -10.34598463	    -14.96445221	    -10.07413625	      5.79572882	     11.93689476
      1.17883333	     -1.79950640	     -6.65545749	    -10.13538633	      0.01290545	      0.99152798	      0.30432641	    -15.93117919	      5.11477005	      1.60781783	     -9.42158257	      3.35818799	     -5.50948654	     10.13853371	     24.32212473	    -11.66094338	    -12.81586219	     -4.99971682	      1.54681287	    -10.84109606	    -14.93715324	    -10.10221179	      5.46795543	     12.14711751
